# xmcd CD database file
#
# Track frame offsets:
#	197
#	33420
#	63315
#
# Disc length: 1943 seconds
#
# Revision: 3
# Processed by: cddbd v1.4PL0 Copyright (c) Steve Scherf et al.
# Submitted via: CDex 1.40Release
#
DISCID=1f079503
DTITLE=Earth - Extra-Capsular Extraction
DYEAR=1991
DGENRE=Rock
TTITLE0=A Bureaucratic Desire For Revenge Part 1
TTITLE1=A Bureaucratic Desire For Revenge Part 2
TTITLE2=Ouroboros Is Broken
EXTD=YEAR: 1991 ID3G: 17
EXTT0=
EXTT1=
EXTT2=
PLAYORDER=
